# xmcd
#
# Track frame offsets: 
#        182
#        14085
#        32917
#        50690
#        68580
#        80390
#        94250
#        105625
#        122180
#        137117
#        146860
#
# Disc length: 2255 seconds
#
# Revision: 0
# Processed by: cddbd v1.5.2PL0 Copyright (c) Steve Scherf et al.
# Submitted via: ExactAudioCopy v1.0b3
#
DISCID=a108cd0b
DTITLE=The Flying Burrito Bros - The Gilded Palace Of Sin
DYEAR=1900
DGENRE=
TTITLE0=Christine's Tune
TTITLE1=Sin City
TTITLE2=Do Right Woman
TTITLE3=Dark End Of The Street
TTITLE4=My Uncle
TTITLE5=Wheels
TTITLE6=Juanita
TTITLE7=Hot Burrito No. 1
TTITLE8=Hot Burrito No. 2
TTITLE9=Do You Know How It Feels
TTITLE10=Hippie Boy
EXTD=
EXTT0=
EXTT1=
EXTT2=
EXTT3=
EXTT4=
EXTT5=
EXTT6=
EXTT7=
EXTT8=
EXTT9=
EXTT10=
PLAYORDER=
